<svg xmlns="http://www.w3.org/2000/svg" xmlns:xlink="http://www.w3.org/1999/xlink" viewBox="0 0 663.21 163"><defs><style>.a{fill:url(#a);}.b{fill:#99f;}.c{fill:#66c;}.d{fill:url(#b);}.e{fill:url(#c);}</style><linearGradient id="a" x1="629.01" y1="15.63" x2="619.25" y2="42.45" gradientUnits="userSpaceOnUse"><stop offset="0.47" stop-color="#ccf"/><stop offset="0.72" stop-color="#b6b6ff"/><stop offset="1" stop-color="#99f"/></linearGradient><linearGradient id="b" x1="331.6" y1="163" x2="331.6" gradientUnits="userSpaceOnUse"><stop offset="0" stop-color="#99f"/><stop offset="0.11" stop-color="#acacff"/><stop offset="0.25" stop-color="#bebeff"/><stop offset="0.39" stop-color="#c9c9ff"/><stop offset="0.56" stop-color="#ccf"/></linearGradient><linearGradient id="c" x1="38.58" y1="107.66" x2="38.58" y2="163" gradientUnits="userSpaceOnUse"><stop offset="0.28" stop-color="#99f"/><stop offset="0.38" stop-color="#acacff"/><stop offset="0.51" stop-color="#bebeff"/><stop offset="0.64" stop-color="#c9c9ff"/><stop offset="0.8" stop-color="#ccf"/></linearGradient></defs><title>UI</title><polygon class="a" points="586.06 0 663.21 55.34 626.25 45 586.06 0"/><polygon class="b" points="663.21 55.34 610.52 162.08 626.25 45 663.21 55.34"/><polygon class="c" points="663.21 55.34 647.75 162.5 610.52 162.08 663.21 55.34"/><polygon class="d" points="586.06 0 331.61 0 52.69 0.92 36.96 118 77.15 163 331.61 163 610.52 162.08 626.25 45 586.06 0"/><polygon class="e" points="77.15 163 0 107.66 36.96 118 77.15 163"/><polygon class="b" points="0 107.66 52.69 0.92 36.96 118 0 107.66"/><polygon class="c" points="0 107.66 15.46 0.5 52.69 0.92 0 107.66"/></svg>